solid Default
  facet normal 0.000000e+00 0.000000e+00 1.000000e+00
    outer loop
      vertex -1.504696e+01 2.159585e+01 6.548892e+00
      vertex -1.504696e+01 1.504696e+01 6.548892e+00
      vertex 1.504696e+01 2.159585e+01 6.548892e+00
    endloop
  endfacet
  facet normal 0.000000e+00 0.000000e+00 1.000000e+00
    outer loop
      vertex 1.504696e+01 2.159585e+01 6.548892e+00
      vertex -1.504696e+01 1.504696e+01 6.548892e+00
      vertex 1.504696e+01 1.504696e+01 6.548892e+00
    endloop
  endfacet
  facet normal 1.000000e+00 0.000000e+00 0.000000e+00
    outer loop
      vertex -1.504696e+01 2.159585e+01 3.664281e+01
      vertex -1.504696e+01 1.504696e+01 3.664281e+01
      vertex -1.504696e+01 2.159585e+01 6.548892e+00
    endloop
  endfacet
  facet normal 1.000000e+00 0.000000e+00 0.000000e+00
    outer loop
      vertex -1.504696e+01 2.159585e+01 6.548892e+00
      vertex -1.504696e+01 1.504696e+01 3.664281e+01
      vertex -1.504696e+01 1.504696e+01 6.548892e+00
    endloop
  endfacet
  facet normal 0.000000e+00 0.000000e+00 -1.000000e+00
    outer loop
      vertex 1.504696e+01 2.159585e+01 3.664281e+01
      vertex 1.504696e+01 1.504696e+01 3.664281e+01
      vertex -1.504696e+01 2.159585e+01 3.664281e+01
    endloop
  endfacet
  facet normal 0.000000e+00 0.000000e+00 -1.000000e+00
    outer loop
      vertex -1.504696e+01 2.159585e+01 3.664281e+01
      vertex 1.504696e+01 1.504696e+01 3.664281e+01
      vertex -1.504696e+01 1.504696e+01 3.664281e+01
    endloop
  endfacet
  facet normal -1.000000e+00 0.000000e+00 0.000000e+00
    outer loop
      vertex 1.504696e+01 2.159585e+01 6.548892e+00
      vertex 1.504696e+01 1.504696e+01 6.548892e+00
      vertex 1.504696e+01 2.159585e+01 3.664281e+01
    endloop
  endfacet
  facet normal -1.000000e+00 0.000000e+00 0.000000e+00
    outer loop
      vertex 1.504696e+01 2.159585e+01 3.664281e+01
      vertex 1.504696e+01 1.504696e+01 6.548892e+00
      vertex 1.504696e+01 1.504696e+01 3.664281e+01
    endloop
  endfacet
  facet normal 0.000000e+00 -1.000000e+00 0.000000e+00
    outer loop
      vertex 1.504696e+01 1.504696e+01 0.000000e+00
      vertex 1.504696e+01 1.504696e+01 6.548892e+00
      vertex -1.504696e+01 1.504696e+01 2.384186e-06
    endloop
  endfacet
  facet normal 0.000000e+00 -1.000000e+00 0.000000e+00
    outer loop
      vertex -1.504696e+01 1.504696e+01 2.384186e-06
      vertex 1.504696e+01 1.504696e+01 6.548892e+00
      vertex -1.504696e+01 1.504696e+01 6.548892e+00
    endloop
  endfacet
  facet normal 0.000000e+00 -1.000000e+00 0.000000e+00
    outer loop
      vertex -2.159585e+01 1.504696e+01 6.548892e+00
      vertex -1.504696e+01 1.504696e+01 6.548892e+00
      vertex -2.159585e+01 1.504696e+01 3.664281e+01
    endloop
  endfacet
  facet normal 0.000000e+00 -1.000000e+00 0.000000e+00
    outer loop
      vertex -2.159585e+01 1.504696e+01 3.664281e+01
      vertex -1.504696e+01 1.504696e+01 6.548892e+00
      vertex -1.504696e+01 1.504696e+01 3.664281e+01
    endloop
  endfacet
  facet normal 0.000000e+00 -1.000000e+00 0.000000e+00
    outer loop
      vertex -1.504696e+01 1.504696e+01 4.319170e+01
      vertex -1.504696e+01 1.504696e+01 3.664281e+01
      vertex 1.504696e+01 1.504696e+01 4.319170e+01
    endloop
  endfacet
  facet normal 0.000000e+00 -1.000000e+00 0.000000e+00
    outer loop
      vertex 1.504696e+01 1.504696e+01 4.319170e+01
      vertex -1.504696e+01 1.504696e+01 3.664281e+01
      vertex 1.504696e+01 1.504696e+01 3.664281e+01
    endloop
  endfacet
  facet normal 0.000000e+00 -1.000000e+00 0.000000e+00
    outer loop
      vertex 2.159585e+01 1.504696e+01 3.664281e+01
      vertex 1.504696e+01 1.504696e+01 3.664281e+01
      vertex 2.159585e+01 1.504696e+01 6.548892e+00
    endloop
  endfacet
  facet normal 0.000000e+00 -1.000000e+00 0.000000e+00
    outer loop
      vertex 2.159585e+01 1.504696e+01 6.548892e+00
      vertex 1.504696e+01 1.504696e+01 3.664281e+01
      vertex 1.504696e+01 1.504696e+01 6.548892e+00
    endloop
  endfacet
  facet normal 1.000000e+00 0.000000e+00 0.000000e+00
    outer loop
      vertex -1.504696e+01 1.504696e+01 2.384186e-06
      vertex -1.504696e+01 1.504696e+01 6.548892e+00
      vertex -1.504696e+01 -1.504696e+01 0.000000e+00
    endloop
  endfacet
  facet normal 1.000000e+00 0.000000e+00 0.000000e+00
    outer loop
      vertex -1.504696e+01 -1.504696e+01 0.000000e+00
      vertex -1.504696e+01 1.504696e+01 6.548892e+00
      vertex -1.504696e+01 -1.504696e+01 6.548892e+00
    endloop
  endfacet
  facet normal -1.000000e+00 0.000000e+00 0.000000e+00
    outer loop
      vertex 1.504696e+01 -1.504696e+01 0.000000e+00
      vertex 1.504696e+01 -1.504696e+01 6.548892e+00
      vertex 1.504696e+01 1.504696e+01 0.000000e+00
    endloop
  endfacet
  facet normal -1.000000e+00 0.000000e+00 0.000000e+00
    outer loop
      vertex 1.504696e+01 1.504696e+01 0.000000e+00
      vertex 1.504696e+01 -1.504696e+01 6.548892e+00
      vertex 1.504696e+01 1.504696e+01 6.548892e+00
    endloop
  endfacet
  facet normal 0.000000e+00 0.000000e+00 -1.000000e+00
    outer loop
      vertex -2.159585e+01 1.504696e+01 3.664281e+01
      vertex -1.504696e+01 1.504696e+01 3.664281e+01
      vertex -2.159585e+01 -1.504696e+01 3.664281e+01
    endloop
  endfacet
  facet normal 0.000000e+00 0.000000e+00 -1.000000e+00
    outer loop
      vertex -2.159585e+01 -1.504696e+01 3.664281e+01
      vertex -1.504696e+01 1.504696e+01 3.664281e+01
      vertex -1.504696e+01 -1.504696e+01 3.664281e+01
    endloop
  endfacet
  facet normal 0.000000e+00 0.000000e+00 1.000000e+00
    outer loop
      vertex -2.159585e+01 -1.504696e+01 6.548892e+00
      vertex -1.504696e+01 -1.504696e+01 6.548892e+00
      vertex -2.159585e+01 1.504696e+01 6.548892e+00
    endloop
  endfacet
  facet normal 0.000000e+00 0.000000e+00 1.000000e+00
    outer loop
      vertex -2.159585e+01 1.504696e+01 6.548892e+00
      vertex -1.504696e+01 -1.504696e+01 6.548892e+00
      vertex -1.504696e+01 1.504696e+01 6.548892e+00
    endloop
  endfacet
  facet normal -1.000000e+00 0.000000e+00 0.000000e+00
    outer loop
      vertex 1.504696e+01 1.504696e+01 4.319170e+01
      vertex 1.504696e+01 1.504696e+01 3.664281e+01
      vertex 1.504696e+01 -1.504696e+01 4.319170e+01
    endloop
  endfacet
  facet normal -1.000000e+00 0.000000e+00 0.000000e+00
    outer loop
      vertex 1.504696e+01 -1.504696e+01 4.319170e+01
      vertex 1.504696e+01 1.504696e+01 3.664281e+01
      vertex 1.504696e+01 -1.504696e+01 3.664281e+01
    endloop
  endfacet
  facet normal 1.000000e+00 0.000000e+00 0.000000e+00
    outer loop
      vertex -1.504696e+01 -1.504696e+01 4.319170e+01
      vertex -1.504696e+01 -1.504696e+01 3.664281e+01
      vertex -1.504696e+01 1.504696e+01 4.319170e+01
    endloop
  endfacet
  facet normal 1.000000e+00 0.000000e+00 0.000000e+00
    outer loop
      vertex -1.504696e+01 1.504696e+01 4.319170e+01
      vertex -1.504696e+01 -1.504696e+01 3.664281e+01
      vertex -1.504696e+01 1.504696e+01 3.664281e+01
    endloop
  endfacet
  facet normal 0.000000e+00 0.000000e+00 1.000000e+00
    outer loop
      vertex 2.159585e+01 1.504696e+01 6.548892e+00
      vertex 1.504696e+01 1.504696e+01 6.548892e+00
      vertex 2.159585e+01 -1.504696e+01 6.548892e+00
    endloop
  endfacet
  facet normal 0.000000e+00 0.000000e+00 1.000000e+00
    outer loop
      vertex 2.159585e+01 -1.504696e+01 6.548892e+00
      vertex 1.504696e+01 1.504696e+01 6.548892e+00
      vertex 1.504696e+01 -1.504696e+01 6.548892e+00
    endloop
  endfacet
  facet normal 0.000000e+00 0.000000e+00 -1.000000e+00
    outer loop
      vertex 2.159585e+01 -1.504696e+01 3.664281e+01
      vertex 1.504696e+01 -1.504696e+01 3.664281e+01
      vertex 2.159585e+01 1.504696e+01 3.664281e+01
    endloop
  endfacet
  facet normal 0.000000e+00 0.000000e+00 -1.000000e+00
    outer loop
      vertex 2.159585e+01 1.504696e+01 3.664281e+01
      vertex 1.504696e+01 -1.504696e+01 3.664281e+01
      vertex 1.504696e+01 1.504696e+01 3.664281e+01
    endloop
  endfacet
  facet normal 0.000000e+00 1.000000e+00 0.000000e+00
    outer loop
      vertex -1.504696e+01 -1.504696e+01 0.000000e+00
      vertex -1.504696e+01 -1.504696e+01 6.548892e+00
      vertex 1.504696e+01 -1.504696e+01 0.000000e+00
    endloop
  endfacet
  facet normal 0.000000e+00 1.000000e+00 0.000000e+00
    outer loop
      vertex 1.504696e+01 -1.504696e+01 0.000000e+00
      vertex -1.504696e+01 -1.504696e+01 6.548892e+00
      vertex 1.504696e+01 -1.504696e+01 6.548892e+00
    endloop
  endfacet
  facet normal 0.000000e+00 1.000000e+00 0.000000e+00
    outer loop
      vertex -2.159585e+01 -1.504696e+01 3.664281e+01
      vertex -1.504696e+01 -1.504696e+01 3.664281e+01
      vertex -2.159585e+01 -1.504696e+01 6.548892e+00
    endloop
  endfacet
  facet normal 0.000000e+00 1.000000e+00 0.000000e+00
    outer loop
      vertex -2.159585e+01 -1.504696e+01 6.548892e+00
      vertex -1.504696e+01 -1.504696e+01 3.664281e+01
      vertex -1.504696e+01 -1.504696e+01 6.548892e+00
    endloop
  endfacet
  facet normal 0.000000e+00 1.000000e+00 0.000000e+00
    outer loop
      vertex 1.504696e+01 -1.504696e+01 4.319170e+01
      vertex 1.504696e+01 -1.504696e+01 3.664281e+01
      vertex -1.504696e+01 -1.504696e+01 4.319170e+01
    endloop
  endfacet
  facet normal 0.000000e+00 1.000000e+00 0.000000e+00
    outer loop
      vertex -1.504696e+01 -1.504696e+01 4.319170e+01
      vertex 1.504696e+01 -1.504696e+01 3.664281e+01
      vertex -1.504696e+01 -1.504696e+01 3.664281e+01
    endloop
  endfacet
  facet normal 0.000000e+00 1.000000e+00 0.000000e+00
    outer loop
      vertex 2.159585e+01 -1.504696e+01 6.548892e+00
      vertex 1.504696e+01 -1.504696e+01 6.548892e+00
      vertex 2.159585e+01 -1.504696e+01 3.664281e+01
    endloop
  endfacet
  facet normal 0.000000e+00 1.000000e+00 0.000000e+00
    outer loop
      vertex 2.159585e+01 -1.504696e+01 3.664281e+01
      vertex 1.504696e+01 -1.504696e+01 6.548892e+00
      vertex 1.504696e+01 -1.504696e+01 3.664281e+01
    endloop
  endfacet
  facet normal 0.000000e+00 0.000000e+00 1.000000e+00
    outer loop
      vertex 1.504696e+01 -2.159585e+01 6.548892e+00
      vertex 1.504696e+01 -1.504696e+01 6.548892e+00
      vertex -1.504696e+01 -2.159585e+01 6.548892e+00
    endloop
  endfacet
  facet normal 0.000000e+00 0.000000e+00 1.000000e+00
    outer loop
      vertex -1.504696e+01 -2.159585e+01 6.548892e+00
      vertex 1.504696e+01 -1.504696e+01 6.548892e+00
      vertex -1.504696e+01 -1.504696e+01 6.548892e+00
    endloop
  endfacet
  facet normal 1.000000e+00 0.000000e+00 0.000000e+00
    outer loop
      vertex -1.504696e+01 -2.159585e+01 6.548892e+00
      vertex -1.504696e+01 -1.504696e+01 6.548892e+00
      vertex -1.504696e+01 -2.159585e+01 3.664281e+01
    endloop
  endfacet
  facet normal 1.000000e+00 0.000000e+00 0.000000e+00
    outer loop
      vertex -1.504696e+01 -2.159585e+01 3.664281e+01
      vertex -1.504696e+01 -1.504696e+01 6.548892e+00
      vertex -1.504696e+01 -1.504696e+01 3.664281e+01
    endloop
  endfacet
  facet normal 0.000000e+00 0.000000e+00 -1.000000e+00
    outer loop
      vertex -1.504696e+01 -2.159585e+01 3.664281e+01
      vertex -1.504696e+01 -1.504696e+01 3.664281e+01
      vertex 1.504696e+01 -2.159585e+01 3.664281e+01
    endloop
  endfacet
  facet normal 0.000000e+00 0.000000e+00 -1.000000e+00
    outer loop
      vertex 1.504696e+01 -2.159585e+01 3.664281e+01
      vertex -1.504696e+01 -1.504696e+01 3.664281e+01
      vertex 1.504696e+01 -1.504696e+01 3.664281e+01
    endloop
  endfacet
  facet normal -1.000000e+00 0.000000e+00 0.000000e+00
    outer loop
      vertex 1.504696e+01 -2.159585e+01 3.664281e+01
      vertex 1.504696e+01 -1.504696e+01 3.664281e+01
      vertex 1.504696e+01 -2.159585e+01 6.548892e+00
    endloop
  endfacet
  facet normal -1.000000e+00 0.000000e+00 0.000000e+00
    outer loop
      vertex 1.504696e+01 -2.159585e+01 6.548892e+00
      vertex 1.504696e+01 -1.504696e+01 3.664281e+01
      vertex 1.504696e+01 -1.504696e+01 6.548892e+00
    endloop
  endfacet
  facet normal -1.000000e+00 0.000000e+00 0.000000e+00
    outer loop
      vertex -2.159585e+01 -2.159585e+01 2.384186e-06
      vertex -2.159585e+01 -1.504696e+01 6.548892e+00
      vertex -2.159585e+01 2.159585e+01 2.384186e-06
    endloop
  endfacet
  facet normal -1.000000e+00 0.000000e+00 0.000000e+00
    outer loop
      vertex -2.159585e+01 -1.504696e+01 6.548892e+00
      vertex -2.159585e+01 1.504696e+01 6.548892e+00
      vertex -2.159585e+01 2.159585e+01 2.384186e-06
    endloop
  endfacet
  facet normal -1.000000e+00 0.000000e+00 0.000000e+00
    outer loop
      vertex -2.159585e+01 -2.159585e+01 2.384186e-06
      vertex -2.159585e+01 -2.159585e+01 4.319170e+01
      vertex -2.159585e+01 -1.504696e+01 6.548892e+00
    endloop
  endfacet
  facet normal -1.000000e+00 0.000000e+00 0.000000e+00
    outer loop
      vertex -2.159585e+01 -1.504696e+01 6.548892e+00
      vertex -2.159585e+01 -2.159585e+01 4.319170e+01
      vertex -2.159585e+01 -1.504696e+01 3.664281e+01
    endloop
  endfacet
  facet normal -1.000000e+00 0.000000e+00 0.000000e+00
    outer loop
      vertex -2.159585e+01 -2.159585e+01 4.319170e+01
      vertex -2.159585e+01 2.159585e+01 4.319170e+01
      vertex -2.159585e+01 -1.504696e+01 3.664281e+01
    endloop
  endfacet
  facet normal -1.000000e+00 0.000000e+00 0.000000e+00
    outer loop
      vertex -2.159585e+01 -1.504696e+01 3.664281e+01
      vertex -2.159585e+01 2.159585e+01 4.319170e+01
      vertex -2.159585e+01 1.504696e+01 3.664281e+01
    endloop
  endfacet
  facet normal -1.000000e+00 0.000000e+00 0.000000e+00
    outer loop
      vertex -2.159585e+01 2.159585e+01 4.319170e+01
      vertex -2.159585e+01 2.159585e+01 2.384186e-06
      vertex -2.159585e+01 1.504696e+01 3.664281e+01
    endloop
  endfacet
  facet normal -1.000000e+00 0.000000e+00 0.000000e+00
    outer loop
      vertex -2.159585e+01 1.504696e+01 6.548892e+00
      vertex -2.159585e+01 1.504696e+01 3.664281e+01
      vertex -2.159585e+01 2.159585e+01 2.384186e-06
    endloop
  endfacet
  facet normal 1.000000e+00 0.000000e+00 0.000000e+00
    outer loop
      vertex 2.159585e+01 -2.159585e+01 4.319170e+01
      vertex 2.159585e+01 -1.504696e+01 3.664281e+01
      vertex 2.159585e+01 2.159585e+01 4.319170e+01
    endloop
  endfacet
  facet normal 1.000000e+00 0.000000e+00 0.000000e+00
    outer loop
      vertex 2.159585e+01 -1.504696e+01 3.664281e+01
      vertex 2.159585e+01 1.504696e+01 3.664281e+01
      vertex 2.159585e+01 2.159585e+01 4.319170e+01
    endloop
  endfacet
  facet normal 1.000000e+00 0.000000e+00 0.000000e+00
    outer loop
      vertex 2.159585e+01 -2.159585e+01 4.319170e+01
      vertex 2.159585e+01 -2.159585e+01 2.384186e-06
      vertex 2.159585e+01 -1.504696e+01 3.664281e+01
    endloop
  endfacet
  facet normal 1.000000e+00 0.000000e+00 0.000000e+00
    outer loop
      vertex 2.159585e+01 -1.504696e+01 3.664281e+01
      vertex 2.159585e+01 -2.159585e+01 2.384186e-06
      vertex 2.159585e+01 -1.504696e+01 6.548892e+00
    endloop
  endfacet
  facet normal 1.000000e+00 0.000000e+00 0.000000e+00
    outer loop
      vertex 2.159585e+01 -2.159585e+01 2.384186e-06
      vertex 2.159585e+01 2.159585e+01 2.384186e-06
      vertex 2.159585e+01 -1.504696e+01 6.548892e+00
    endloop
  endfacet
  facet normal 1.000000e+00 0.000000e+00 0.000000e+00
    outer loop
      vertex 2.159585e+01 -1.504696e+01 6.548892e+00
      vertex 2.159585e+01 2.159585e+01 2.384186e-06
      vertex 2.159585e+01 1.504696e+01 6.548892e+00
    endloop
  endfacet
  facet normal 1.000000e+00 0.000000e+00 0.000000e+00
    outer loop
      vertex 2.159585e+01 2.159585e+01 2.384186e-06
      vertex 2.159585e+01 2.159585e+01 4.319170e+01
      vertex 2.159585e+01 1.504696e+01 6.548892e+00
    endloop
  endfacet
  facet normal 1.000000e+00 0.000000e+00 0.000000e+00
    outer loop
      vertex 2.159585e+01 1.504696e+01 3.664281e+01
      vertex 2.159585e+01 1.504696e+01 6.548892e+00
      vertex 2.159585e+01 2.159585e+01 4.319170e+01
    endloop
  endfacet
  facet normal 0.000000e+00 -1.000000e+00 0.000000e+00
    outer loop
      vertex -2.159585e+01 -2.159585e+01 2.384186e-06
      vertex -1.504696e+01 -2.159585e+01 6.548892e+00
      vertex -2.159585e+01 -2.159585e+01 4.319170e+01
    endloop
  endfacet
  facet normal 0.000000e+00 -1.000000e+00 0.000000e+00
    outer loop
      vertex -1.504696e+01 -2.159585e+01 6.548892e+00
      vertex -1.504696e+01 -2.159585e+01 3.664281e+01
      vertex -2.159585e+01 -2.159585e+01 4.319170e+01
    endloop
  endfacet
  facet normal 0.000000e+00 -1.000000e+00 0.000000e+00
    outer loop
      vertex -2.159585e+01 -2.159585e+01 2.384186e-06
      vertex 2.159585e+01 -2.159585e+01 2.384186e-06
      vertex -1.504696e+01 -2.159585e+01 6.548892e+00
    endloop
  endfacet
  facet normal 0.000000e+00 -1.000000e+00 0.000000e+00
    outer loop
      vertex -1.504696e+01 -2.159585e+01 6.548892e+00
      vertex 2.159585e+01 -2.159585e+01 2.384186e-06
      vertex 1.504696e+01 -2.159585e+01 6.548892e+00
    endloop
  endfacet
  facet normal 0.000000e+00 -1.000000e+00 0.000000e+00
    outer loop
      vertex 2.159585e+01 -2.159585e+01 2.384186e-06
      vertex 2.159585e+01 -2.159585e+01 4.319170e+01
      vertex 1.504696e+01 -2.159585e+01 6.548892e+00
    endloop
  endfacet
  facet normal 0.000000e+00 -1.000000e+00 0.000000e+00
    outer loop
      vertex 1.504696e+01 -2.159585e+01 6.548892e+00
      vertex 2.159585e+01 -2.159585e+01 4.319170e+01
      vertex 1.504696e+01 -2.159585e+01 3.664281e+01
    endloop
  endfacet
  facet normal 0.000000e+00 -1.000000e+00 0.000000e+00
    outer loop
      vertex 2.159585e+01 -2.159585e+01 4.319170e+01
      vertex -2.159585e+01 -2.159585e+01 4.319170e+01
      vertex 1.504696e+01 -2.159585e+01 3.664281e+01
    endloop
  endfacet
  facet normal 0.000000e+00 -1.000000e+00 0.000000e+00
    outer loop
      vertex -1.504696e+01 -2.159585e+01 3.664281e+01
      vertex 1.504696e+01 -2.159585e+01 3.664281e+01
      vertex -2.159585e+01 -2.159585e+01 4.319170e+01
    endloop
  endfacet
  facet normal 0.000000e+00 0.000000e+00 -1.000000e+00
    outer loop
      vertex -2.159585e+01 2.159585e+01 2.384186e-06
      vertex -1.504696e+01 1.504696e+01 2.384186e-06
      vertex -2.159585e+01 -2.159585e+01 2.384186e-06
    endloop
  endfacet
  facet normal 0.000000e+00 0.000000e+00 -1.000000e+00
    outer loop
      vertex -1.504696e+01 1.504696e+01 2.384186e-06
      vertex -1.504696e+01 -1.504696e+01 0.000000e+00
      vertex -2.159585e+01 -2.159585e+01 2.384186e-06
    endloop
  endfacet
  facet normal 0.000000e+00 0.000000e+00 -1.000000e+00
    outer loop
      vertex -2.159585e+01 2.159585e+01 2.384186e-06
      vertex 2.159585e+01 2.159585e+01 2.384186e-06
      vertex -1.504696e+01 1.504696e+01 2.384186e-06
    endloop
  endfacet
  facet normal 0.000000e+00 0.000000e+00 -1.000000e+00
    outer loop
      vertex -1.504696e+01 1.504696e+01 2.384186e-06
      vertex 2.159585e+01 2.159585e+01 2.384186e-06
      vertex 1.504696e+01 1.504696e+01 0.000000e+00
    endloop
  endfacet
  facet normal 0.000000e+00 0.000000e+00 -1.000000e+00
    outer loop
      vertex 2.159585e+01 2.159585e+01 2.384186e-06
      vertex 2.159585e+01 -2.159585e+01 2.384186e-06
      vertex 1.504696e+01 1.504696e+01 0.000000e+00
    endloop
  endfacet
  facet normal 0.000000e+00 0.000000e+00 -1.000000e+00
    outer loop
      vertex 1.504696e+01 1.504696e+01 0.000000e+00
      vertex 2.159585e+01 -2.159585e+01 2.384186e-06
      vertex 1.504696e+01 -1.504696e+01 0.000000e+00
    endloop
  endfacet
  facet normal 0.000000e+00 0.000000e+00 -1.000000e+00
    outer loop
      vertex 2.159585e+01 -2.159585e+01 2.384186e-06
      vertex -2.159585e+01 -2.159585e+01 2.384186e-06
      vertex 1.504696e+01 -1.504696e+01 0.000000e+00
    endloop
  endfacet
  facet normal 0.000000e+00 0.000000e+00 -1.000000e+00
    outer loop
      vertex -1.504696e+01 -1.504696e+01 0.000000e+00
      vertex 1.504696e+01 -1.504696e+01 0.000000e+00
      vertex -2.159585e+01 -2.159585e+01 2.384186e-06
    endloop
  endfacet
  facet normal 0.000000e+00 1.000000e+00 0.000000e+00
    outer loop
      vertex -2.159585e+01 2.159585e+01 4.319170e+01
      vertex -1.504696e+01 2.159585e+01 3.664281e+01
      vertex -2.159585e+01 2.159585e+01 2.384186e-06
    endloop
  endfacet
  facet normal 0.000000e+00 1.000000e+00 0.000000e+00
    outer loop
      vertex -1.504696e+01 2.159585e+01 3.664281e+01
      vertex -1.504696e+01 2.159585e+01 6.548892e+00
      vertex -2.159585e+01 2.159585e+01 2.384186e-06
    endloop
  endfacet
  facet normal 0.000000e+00 1.000000e+00 0.000000e+00
    outer loop
      vertex -2.159585e+01 2.159585e+01 4.319170e+01
      vertex 2.159585e+01 2.159585e+01 4.319170e+01
      vertex -1.504696e+01 2.159585e+01 3.664281e+01
    endloop
  endfacet
  facet normal 0.000000e+00 1.000000e+00 0.000000e+00
    outer loop
      vertex -1.504696e+01 2.159585e+01 3.664281e+01
      vertex 2.159585e+01 2.159585e+01 4.319170e+01
      vertex 1.504696e+01 2.159585e+01 3.664281e+01
    endloop
  endfacet
  facet normal 0.000000e+00 1.000000e+00 0.000000e+00
    outer loop
      vertex 2.159585e+01 2.159585e+01 4.319170e+01
      vertex 2.159585e+01 2.159585e+01 2.384186e-06
      vertex 1.504696e+01 2.159585e+01 3.664281e+01
    endloop
  endfacet
  facet normal 0.000000e+00 1.000000e+00 0.000000e+00
    outer loop
      vertex 1.504696e+01 2.159585e+01 3.664281e+01
      vertex 2.159585e+01 2.159585e+01 2.384186e-06
      vertex 1.504696e+01 2.159585e+01 6.548892e+00
    endloop
  endfacet
  facet normal 0.000000e+00 1.000000e+00 0.000000e+00
    outer loop
      vertex 2.159585e+01 2.159585e+01 2.384186e-06
      vertex -2.159585e+01 2.159585e+01 2.384186e-06
      vertex 1.504696e+01 2.159585e+01 6.548892e+00
    endloop
  endfacet
  facet normal 0.000000e+00 1.000000e+00 0.000000e+00
    outer loop
      vertex -1.504696e+01 2.159585e+01 6.548892e+00
      vertex 1.504696e+01 2.159585e+01 6.548892e+00
      vertex -2.159585e+01 2.159585e+01 2.384186e-06
    endloop
  endfacet
  facet normal 0.000000e+00 0.000000e+00 1.000000e+00
    outer loop
      vertex -2.159585e+01 -2.159585e+01 4.319170e+01
      vertex -1.504696e+01 -1.504696e+01 4.319170e+01
      vertex -2.159585e+01 2.159585e+01 4.319170e+01
    endloop
  endfacet
  facet normal 0.000000e+00 0.000000e+00 1.000000e+00
    outer loop
      vertex -1.504696e+01 -1.504696e+01 4.319170e+01
      vertex -1.504696e+01 1.504696e+01 4.319170e+01
      vertex -2.159585e+01 2.159585e+01 4.319170e+01
    endloop
  endfacet
  facet normal 0.000000e+00 0.000000e+00 1.000000e+00
    outer loop
      vertex -2.159585e+01 -2.159585e+01 4.319170e+01
      vertex 2.159585e+01 -2.159585e+01 4.319170e+01
      vertex -1.504696e+01 -1.504696e+01 4.319170e+01
    endloop
  endfacet
  facet normal 0.000000e+00 0.000000e+00 1.000000e+00
    outer loop
      vertex -1.504696e+01 -1.504696e+01 4.319170e+01
      vertex 2.159585e+01 -2.159585e+01 4.319170e+01
      vertex 1.504696e+01 -1.504696e+01 4.319170e+01
    endloop
  endfacet
  facet normal 0.000000e+00 0.000000e+00 1.000000e+00
    outer loop
      vertex 2.159585e+01 -2.159585e+01 4.319170e+01
      vertex 2.159585e+01 2.159585e+01 4.319170e+01
      vertex 1.504696e+01 -1.504696e+01 4.319170e+01
    endloop
  endfacet
  facet normal 0.000000e+00 0.000000e+00 1.000000e+00
    outer loop
      vertex 1.504696e+01 -1.504696e+01 4.319170e+01
      vertex 2.159585e+01 2.159585e+01 4.319170e+01
      vertex 1.504696e+01 1.504696e+01 4.319170e+01
    endloop
  endfacet
  facet normal 0.000000e+00 0.000000e+00 1.000000e+00
    outer loop
      vertex 2.159585e+01 2.159585e+01 4.319170e+01
      vertex -2.159585e+01 2.159585e+01 4.319170e+01
      vertex 1.504696e+01 1.504696e+01 4.319170e+01
    endloop
  endfacet
  facet normal 0.000000e+00 0.000000e+00 1.000000e+00
    outer loop
      vertex -1.504696e+01 1.504696e+01 4.319170e+01
      vertex 1.504696e+01 1.504696e+01 4.319170e+01
      vertex -2.159585e+01 2.159585e+01 4.319170e+01
    endloop
  endfacet
endsolid Default
